<svg width="48" height="48" viewBox="0 0 48 48" fill="none" xmlns="http://www.w3.org/2000/svg">
    <path d="M37.6 8H10.4C9.76348 8 9.15303 8.25286 8.70294 8.70294C8.25286 9.15303 8 9.76348 8 10.4V37.6C8 38.2365 8.25286 38.847 8.70294 39.2971C9.15303 39.7471 9.76348 40 10.4 40H37.6C38.2365 40 38.847 39.7471 39.2971 39.2971C39.7471 38.847 40 38.2365 40 37.6V10.4C40 9.76348 39.7471 9.15303 39.2971 8.70294C38.847 8.25286 38.2365 8 37.6 8ZM17.6 35.2H12.8V20.8H17.6V35.2ZM15.2 18C14.6499 17.9843 14.1166 17.8068 13.6668 17.4897C13.217 17.1727 12.8706 16.7301 12.6709 16.2172C12.4712 15.7044 12.427 15.1441 12.5439 14.6064C12.6608 14.0686 12.9336 13.5772 13.3282 13.1936C13.7228 12.8099 14.2217 12.5511 14.7625 12.4494C15.3034 12.3477 15.8622 12.4076 16.3692 12.6217C16.8762 12.8357 17.3088 13.1945 17.6131 13.653C17.9174 14.1116 18.0798 14.6497 18.08 15.2C18.0674 15.9526 17.7573 16.6695 17.2177 17.1942C16.678 17.7189 15.9526 18.0086 15.2 18ZM35.2 35.2H30.4V27.616C30.4 25.344 29.44 24.528 28.192 24.528C27.8261 24.5524 27.4686 24.6488 27.1401 24.8117C26.8115 24.9746 26.5184 25.2008 26.2776 25.4774C26.0367 25.7539 25.8529 26.0753 25.7366 26.4231C25.6203 26.7709 25.5739 27.1382 25.6 27.504C25.5921 27.5785 25.5921 27.6535 25.6 27.728V35.2H20.8V20.8H25.44V22.88C25.908 22.168 26.5511 21.5881 27.3075 21.1959C28.0639 20.8037 28.9084 20.6123 29.76 20.64C32.24 20.64 35.136 22.016 35.136 26.496L35.2 35.2Z" fill="#08202D"/>
</svg>
